HIERARCHY
ROOT Pelvis
{
	OFFSET 0.000000 0.000000 0.000000
	CHANNELS 6 Xposition Yposition Zposition Xrotation Yrotation Zrotation
	JOINT LeftUpLeg_virtual
	{
		OFFSET 0.000000 0.000000 0.000000
		CHANNELS 3 Xrotation Yrotation Zrotation
		JOINT LeftUpLeg
		{
			OFFSET 18.735201 -5.666702 -4.541200
			CHANNELS 3 Xrotation Yrotation Zrotation
			JOINT LeftLeg
			{
				OFFSET -0.021200 -31.938179 0.493100
				CHANNELS 3 Xrotation Yrotation Zrotation
				JOINT LeftFoot
				{
					OFFSET 0.021200 -31.938179 -4.336299
					CHANNELS 3 Xrotation Yrotation Zrotation
					JOINT LeftToeBase
					{
						OFFSET 0.943001 -26.722000 15.023500
						CHANNELS 3 Xrotation Yrotation Zrotation
						End Site
						{
							OFFSET 0 0 0
						}
					}
				}
			}
		}
	}
	JOINT RightUpLeg_virtual
	{
		OFFSET 0.000000 0.000000 0.000000
		CHANNELS 3 Xrotation Yrotation Zrotation
		JOINT RightUpLeg
		{
			OFFSET -18.735201 -5.666702 -4.541200
			CHANNELS 3 Xrotation Yrotation Zrotation
			JOINT RightLeg
			{
				OFFSET 0.018946 -31.938133 0.493100
				CHANNELS 3 Xrotation Yrotation Zrotation
				JOINT RightFoot
				{
					OFFSET -0.018946 -31.938126 -4.336299
					CHANNELS 3 Xrotation Yrotation Zrotation
					JOINT RightToeBase
					{
						OFFSET -0.943001 -26.722004 15.023500
						CHANNELS 3 Xrotation Yrotation Zrotation
						End Site
						{
							OFFSET 0 0 0
						}
					}
				}
			}
		}
	}
	JOINT Hips_virtual
	{
		OFFSET 0.000000 0.000000 0.000000
		CHANNELS 3 Xrotation Yrotation Zrotation
		JOINT Hips
		{
			OFFSET -0.000000 -0.000000 -0.000000
			CHANNELS 3 Xrotation Yrotation Zrotation
			JOINT Spine
			{
				OFFSET 0.000000 10.199997 -0.299500
				CHANNELS 3 Xrotation Yrotation Zrotation
				JOINT Spine1
				{
					OFFSET 0.000000 11.900002 -1.516600
					CHANNELS 3 Xrotation Yrotation Zrotation
					JOINT Spine2
					{
						OFFSET 0.000000 13.600006 -2.842500
						CHANNELS 3 Xrotation Yrotation Zrotation
						JOINT Neck_virtual
						{
							OFFSET 0.000000 0.000000 0.000000
							CHANNELS 3 Xrotation Yrotation Zrotation
							JOINT Neck
							{
								OFFSET 0.000000 9.624100 -2.890100
								CHANNELS 3 Xrotation Yrotation Zrotation
								JOINT Head
								{
									OFFSET 0.000000 14.068802 -1.351900
									CHANNELS 3 Xrotation Yrotation Zrotation
									End Site
									{
										OFFSET 0 0 0
									}
								}
							}
						}
						JOINT LeftShoulder_virtual
						{
							OFFSET 0.000000 0.000000 0.000000
							CHANNELS 3 Xrotation Yrotation Zrotation
							JOINT LeftShoulder
							{
								OFFSET 15.263000 10.923401 -0.547700
								CHANNELS 3 Xrotation Yrotation Zrotation
								JOINT LeftArm
								{
									OFFSET 25.438599 -2.830597 -13.032500
									CHANNELS 3 Xrotation Yrotation Zrotation
									JOINT LeftForeArm
									{
										OFFSET 29.960503 0.000000 0.000000
										CHANNELS 3 Xrotation Yrotation Zrotation
										JOINT LeftHand
										{
											OFFSET 27.849251 0.000000 0.000000
											CHANNELS 3 Xrotation Yrotation Zrotation
											End Site
											{
												OFFSET 0 0 0
											}
										}
									}
								}
							}
						}
						JOINT RightShoulder_virtual
						{
							OFFSET 0.000000 0.000000 0.000000
							CHANNELS 3 Xrotation Yrotation Zrotation
							JOINT RightShoulder
							{
								OFFSET -15.263000 10.923401 -0.547700
								CHANNELS 3 Xrotation Yrotation Zrotation
								JOINT RightArm
								{
									OFFSET -25.438599 -2.830597 -13.032500
									CHANNELS 3 Xrotation Yrotation Zrotation
									JOINT RightForeArm
									{
										OFFSET -29.960503 0.000000 0.000000
										CHANNELS 3 Xrotation Yrotation Zrotation
										JOINT RightHand
										{
											OFFSET -27.849251 0.000000 0.000000
											CHANNELS 3 Xrotation Yrotation Zrotation
											End Site
											{
												OFFSET 0 0 0
											}
										}
									}
								}
							}
						}
					}
				}
			}
		}
	}
}
MOTION
Frames: 6
Frame Time: 0.03333333
0.207505 94.209763 2.790539 0.000000 0.000000 0.000000 8.844202 -2.939421 -1.621528 -29.699339 11.094905 14.920362 35.754367 5.313672 -1.163991 -12.072683 5.946573 -3.568816 0.000000 0.000000 0.000000 4.449488 -12.044532 3.168036 -24.986191 -8.577704 -12.610025 31.303840 5.164443 -2.865573 -16.915069 2.825622 9.534860 0.000000 0.000000 0.000000 -0.901869 -3.812591 0.282916 -0.309372 5.764847 -2.648431 2.967803 -0.854449 1.542744 -0.178315 -0.519994 0.831046 0.000000 0.000000 0.000000 0.074443 0.482902 0.686976 -1.659539 0.523665 0.211053 0.000000 0.000000 0.000000 0.683330 0.900586 0.409752 -0.522868 0.254847 -5.283866 7.740034 -23.637195 -47.979897 14.700375 -56.813070 5.325474 0.000000 0.000000 0.000000 1.553237 -0.864607 0.509492 -0.048463 6.134610 6.538662 3.587130 16.722818 48.404564 7.869329 56.625055 -1.344279 0.000000 0.000000 0.000000 
0.569342 94.701645 3.108210 0.000000 0.000000 0.000000 9.072063 -3.287682 -1.465158 -29.307546 11.017978 14.991446 35.483762 5.459053 -1.343606 -12.274421 6.194428 -3.830444 0.000000 0.000000 0.000000 4.010926 -14.599026 3.294259 -25.853775 -9.237926 -12.734991 31.488866 5.683469 -3.674696 -16.883895 3.824695 8.439552 0.000000 0.000000 0.000000 -1.616612 -5.342385 -0.336385 2.770685 6.056436 -2.783707 3.463380 -1.107176 1.423849 0.047668 -0.326927 1.176447 0.000000 0.000000 0.000000 0.304714 0.409503 0.537764 -1.474191 0.610752 0.180098 0.000000 0.000000 0.000000 -0.246201 1.032318 0.678529 -0.132168 2.260813 -5.233622 11.806735 -25.446104 -48.004564 18.677514 -57.000237 7.245044 0.000000 0.000000 0.000000 1.687136 -0.898851 0.525289 0.470118 6.551474 6.933689 4.418634 19.034571 49.460149 8.336209 60.724774 -1.158424 0.000000 0.000000 0.000000 
0.133327 94.522026 2.764015 0.000000 0.000000 0.000000 10.081326 -3.214123 -1.721527 -28.084607 11.374101 14.682900 35.153884 5.788007 -1.256590 -12.708491 6.489755 -3.555549 0.000000 0.000000 0.000000 3.492697 -16.376589 3.454713 -26.926788 -9.628460 -12.844675 31.964206 5.804708 -4.465445 -16.653804 4.409110 7.175144 0.000000 0.000000 0.000000 -0.705190 -4.948759 0.424325 -1.113047 8.043238 -3.917181 4.522970 -1.578782 0.875384 -0.429250 -0.561607 1.498988 0.000000 0.000000 0.000000 0.577373 0.137284 0.529382 -1.408706 0.497924 0.085521 0.000000 0.000000 0.000000 -0.815303 1.065183 0.727448 -0.425981 0.856192 -6.213699 11.666207 -28.778982 -46.579844 21.002598 -59.163290 9.457197 0.000000 0.000000 0.000000 1.473638 -0.936738 0.492364 0.611153 5.919505 6.550998 4.535547 16.482855 49.351235 7.179189 57.300943 -0.785984 0.000000 0.000000 0.000000 
0.862565 94.569847 2.689844 0.000000 0.000000 0.000000 10.180036 -2.196014 -1.475210 -28.271978 11.576208 15.254340 34.697067 5.712782 -1.223098 -13.228600 6.417422 -3.612855 0.000000 0.000000 0.000000 3.273764 -16.757263 3.273629 -27.120280 -9.619843 -12.946963 31.577337 6.005971 -4.686868 -16.842787 4.763669 6.821986 0.000000 0.000000 0.000000 -1.155169 -4.412020 -0.062671 2.766914 7.581635 -3.870557 3.382932 -2.154211 1.052115 -0.373801 -0.364063 1.083033 0.000000 0.000000 0.000000 0.387926 0.056819 0.592100 -1.436093 0.459835 0.088064 0.000000 0.000000 0.000000 -0.638674 0.866423 0.602295 -0.646381 1.973279 -6.260009 12.895390 -30.921912 -46.535612 22.605899 -60.979157 10.427596 0.000000 0.000000 0.000000 1.644737 -0.796962 0.591823 0.530775 6.490967 7.650199 2.441654 16.142027 49.232953 6.407558 58.693182 -0.452480 0.000000 0.000000 0.000000 
0.991933 94.770996 2.925749 0.000000 0.000000 0.000000 10.083934 -4.099026 -1.755338 -28.069412 11.189068 14.561786 34.635336 6.062842 -1.064931 -13.283838 6.690044 -3.171941 0.000000 0.000000 0.000000 3.069547 -18.669468 3.472981 -27.641434 -10.161169 -12.904151 31.305089 6.148627 -4.844595 -17.157886 4.961669 6.607165 0.000000 0.000000 0.000000 0.388608 -3.836819 0.177829 1.399139 6.063249 -1.631976 4.464196 -1.977128 0.768182 -0.711287 -0.462711 1.480651 0.000000 0.000000 0.000000 0.643385 0.011424 0.667569 -1.508385 0.554608 0.106871 0.000000 0.000000 0.000000 -0.656604 0.880117 0.775180 -0.905654 2.987462 -6.557300 12.442936 -31.388783 -45.059185 22.760735 -62.015468 10.917403 0.000000 0.000000 0.000000 1.577357 -0.805253 0.961744 0.726040 7.251495 7.858348 2.082754 14.895540 51.032373 4.619643 59.730086 1.682104 0.000000 0.000000 0.000000 
0.044728 95.095879 3.784180 0.000000 0.000000 0.000000 10.076427 -4.135287 -1.705630 -28.164449 11.165217 14.669879 35.300337 6.018825 -0.966841 -12.822657 6.575438 -3.052183 0.000000 0.000000 0.000000 3.257990 -17.583238 3.868279 -27.353690 -9.978765 -12.363542 31.623960 6.212711 -4.751135 -17.006601 4.960673 6.834861 0.000000 0.000000 0.000000 -1.856890 -6.339074 -0.068042 0.996216 9.297683 -4.748255 4.534071 -2.188228 1.078439 0.350390 0.031255 1.729773 0.000000 0.000000 0.000000 0.051471 0.392550 0.794079 -1.342086 0.645887 0.131276 0.000000 0.000000 0.000000 -0.619494 1.029048 0.726889 -0.393024 3.066341 -6.177242 13.572791 -32.100612 -45.334984 25.348709 -62.909020 12.397843 0.000000 0.000000 0.000000 2.058685 -0.738668 1.097215 1.381920 7.032747 7.923506 0.901552 14.832582 52.821012 4.940762 57.683324 2.213827 0.000000 0.000000 0.000000 
